<!DOCTYPE svg PUBLIC "-//W3C//DTD SVG 1.1//EN" "http://www.w3.org/Graphics/SVG/1.1/DTD/svg11.dtd">
<!-- Uploaded to: SVG Repo, www.svgrepo.com, Transformed by: SVG Repo Mixer Tools -->
<svg fill="#e57bff" version="1.1" id="Capa_1" xmlns="http://www.w3.org/2000/svg" xmlns:xlink="http://www.w3.org/1999/xlink" width="800px" height="800px" viewBox="0 0 521.54 521.539" xml:space="preserve" stroke="#e57bff">
<g id="SVGRepo_bgCarrier" stroke-width="0"/>
<g id="SVGRepo_tracerCarrier" stroke-linecap="round" stroke-linejoin="round"/>
<g id="SVGRepo_iconCarrier"> <g> <g id="Capa_1_13_"> <g> <path d="M117.381,117.313l0.375,0.583c7.82,12.208,12.146,25.454,16.331,38.264c0.495,1.514,0.997,3.043,1.503,4.576 c-0.002-0.048-0.006-0.093-0.008-0.141c-1.801-35.776,0.93-66.817,0.959-67.126l0.379-4.217l4.097,1.068 c12.73,3.319,24.554,13,35.061,25.419c4.052-8.659,9.314-19.709,15.114-31.413c-0.559-0.363-1.113-0.731-1.674-1.09 c-1.191-0.764-2.376-1.538-3.584-2.271c-1.208-0.735-2.394-1.502-3.617-2.209l-3.642-2.153l-3.695-2.045 c-1.23-0.683-2.499-1.285-3.745-1.931c-1.241-0.659-2.523-1.219-3.796-1.799c-1.268-0.59-2.543-1.161-3.85-1.644 c-1.304-0.484-2.572-1.077-3.904-1.458c-1.323-0.404-2.622-0.895-3.951-1.251l-3.997-0.984l-0.353-0.087l-0.286-0.182 c-3.698-2.354-7.022-5.018-10.324-7.651c-3.292-2.64-6.536-5.282-9.851-7.735c-3.303-2.425-6.707-4.771-10.204-6.199 c-1.73-0.708-3.488-1.142-4.982-1.053c-1.493,0.092-2.682,0.616-3.725,1.748c-1.058,1.091-1.874,2.73-2.51,4.469 c-0.669,1.736-1.065,3.625-1.568,5.723c-0.922,4.05-1.806,8.123-2.593,12.209c-1.554,8.176-2.816,16.407-3.607,24.67 c-0.224,2.336-0.408,4.673-0.566,7.011C107.193,103.745,112.691,110.113,117.381,117.313z"/> <path d="M34.29,215.366c5.338-0.759,10.701-1.33,16.076-1.708c5.375-0.377,10.762-0.566,16.151-0.555 c5.388,0.019,10.779,0.209,16.15,0.684c5.207,0.447,10.398,1.103,15.552,1.975c-6.208-10.891-12.938-23.278-20.237-37.379 c-5.854-11.308-11.771-23.201-17.356-34.845c-52.321-10.6-60.47-17.567-60.47-17.567c-2.571,38.604,27.302,81.635,33.073,89.558 C33.583,215.476,33.936,215.417,34.29,215.366z"/> <path d="M137.922,206.215c-1.369-1.933-3.036-4.278-4.954-6.964c-2.102-2.944-4.497-6.285-7.147-9.96 c-0.436-0.604-0.887-1.229-1.336-1.85c-3.422-4.74-7.21-9.949-11.26-15.469c-3.048-4.154-6.242-8.479-9.532-12.896 c-1.971-2.648-3.979-5.329-6.01-8.027c-2.948-3.918-5.944-7.87-8.962-11.81c-3.444-4.497-6.905-8.979-10.354-13.36 c-3.437-4.391-6.858-8.678-10.203-12.801c-6.687-8.248-13.08-15.821-18.765-22.129c-2.674-2.964-5.185-5.631-7.489-7.983 c3.512,10.118,13.61,33.671,27.499,62.305c4.993,10.294,10.474,21.243,16.316,32.461c7.627,14.645,14.932,27.963,21.85,39.87 c2.319,0.52,4.628,1.078,6.925,1.692c2.499,0.664,4.977,1.407,7.436,2.209c2.667,0.871,5.31,1.811,7.927,2.814 c5.028,1.933,9.952,4.135,14.736,6.599c0.962,0.49,1.912,1.004,2.86,1.521c-2.193-6.283-4.103-13.224-5.725-20.822 C141.072,210.673,139.771,208.826,137.922,206.215z"/> <path d="M41.927,82.034c2.524,2.369,5.313,5.103,8.29,8.149c5.95,6.097,12.657,13.434,19.682,21.432 c3.516,3.997,7.112,8.158,10.728,12.418c3.626,4.252,7.271,8.604,10.899,12.97c1.452,1.749,2.9,3.501,4.341,5.251 c1.58,1.918,3.152,3.835,4.711,5.743c1.872,2.292,3.725,4.571,5.553,6.829c9.13,11.278,17.618,22.001,24.529,30.828 c3.134,4.002,5.936,7.605,8.337,10.707c-0.467-3.14-0.899-6.364-1.286-9.683c-0.88-2.188-1.764-4.356-2.657-6.491 c-3.027-7.237-5.446-14.64-7.784-21.799c-4.231-12.951-8.228-25.185-15.552-36.623l-0.345-0.534 c-3.192-4.901-6.78-9.372-10.654-13.35c-1.095-1.125-2.213-2.21-3.352-3.251c-1.059-0.968-2.136-1.901-3.231-2.795 c-5.34-4.364-11.07-7.832-16.985-10.203c-6.242-2.502-27.577-10.018-36.01-11.014c0.091,0.301,0.198,0.635,0.311,0.978 C41.611,81.746,41.763,81.882,41.927,82.034z"/> <path d="M295.992,509.729c1.73-29.785-6.086-93.805-14.763-152.775c-0.859-0.4-1.707-0.773-2.556-1.207 c-1.98-1.006-3.812-2.068-5.525-3.193c-1.553-1.035-2.998-2.123-4.344-3.252c-5.413,12.555-14.351,23.311-25.119,31.9 c7.259,51.145,13.126,102.24,11.736,126.17L295.992,509.729z"/> <path d="M371.158,67.123c2.002,0,3.213,0.945,3.784,1.467c1.869,0.92,2.761,2.85,3.698,4.88c0.79,1.71,1.669,3.615,3.015,4.777 c3.19-1.919,10.838-11.472,15.532-17.334c4.275-5.339,8.342-10.419,11.575-13.641c-0.003-6.554-0.074-13.714,0.124-21.64 c0.753-30.045-66.388,38.865-94.261,68.732c1.761,3.396,3.438,6.829,5.003,10.276C363.15,67.138,368.334,67.123,371.158,67.123z"/> <path d="M207.431,165.975c1.2-1.699,2.615-3.428,4.628-4.663c0.533-0.328,1.085-0.593,1.644-0.822 c0.637-0.262,1.284-0.471,1.933-0.639c0.627-0.162,1.254-0.289,1.875-0.396c0.71-0.121,1.412-0.219,2.085-0.31 c1.509-0.203,2.935-0.396,4.078-0.82c1.054-0.391,2.215-1.156,3.442-1.965c2.047-1.35,4.369-2.879,7.241-3.383 c0.65-0.113,1.337-0.172,2.042-0.172c1.979,0,3.833,0.434,5.625,0.854c1.509,0.353,2.934,0.688,4.175,0.688 c1.241,0,2.666-0.333,4.174-0.688c1.793-0.421,3.647-0.854,5.625-0.854c0.706,0,1.393,0.057,2.043,0.172 c2.872,0.502,5.193,2.032,7.241,3.382c1.229,0.809,2.389,1.574,3.442,1.965c1.144,0.424,2.568,0.617,4.078,0.82 c0.829,0.112,1.696,0.231,2.574,0.398c5.43-12.345,14.354-26.279,28.79-40.812c3.024-3.044,6.293-6.115,9.82-9.203 c-1.395-3.176-2.913-6.38-4.533-9.591c-20.639-40.924-57.736-83.288-65.693-88.127c-3.311,1.788-13.529,11.624-39.767,63.011 c-2.129,4.169-4.219,8.334-6.247,12.422c-0.088,0.179-0.178,0.359-0.267,0.538c-0.088,0.178-0.174,0.354-0.263,0.532 c-6.355,12.847-12.036,24.847-16.139,33.664C191.51,135.664,200.449,151.666,207.431,165.975z"/> <path d="M399.567,181.713l0.105-0.091c1.761-1.488,3.47-3.043,5.308-4.432l10.865-8.546c3.693-2.749,7.429-5.443,11.164-8.135 l2.811-2.007l2.871-1.917l5.741-3.832c3.798-2.604,7.718-5.007,11.619-7.443l5.857-3.643l5.945-3.495l5.96-3.47l6.05-3.309 c2.02-1.096,4.024-2.221,6.056-3.293l6.118-3.173c4.06-2.153,8.211-4.13,12.324-6.176c5.717-2.732,11.459-5.35,17.291-7.847 c20.634-18.676-54.688,5.164-91.623,40.154c-8.095,7.669-15.057,13.22-21.009,17.213 C401.959,172.652,400.816,177.132,399.567,181.713z"/> <path d="M93.986,346.611l-0.963-2.619l0.229-0.158c-1.035-1.107-2.014-2.389-2.799-4.068c-0.316-0.619-0.533-1.387-0.728-2.137 c-0.134-0.812-0.234-1.637-0.141-2.51c0.142-1.736,0.887-3.348,1.781-4.543c1.846-2.35,3.961-3.568,5.964-4.594 c2.028-1,4.049-1.721,6.061-2.348c4.025-1.238,8.029-2.045,12.03-2.732c0.445-0.074,0.887-0.127,1.332-0.197 c-7.086-3.113-14.436-6.809-22.017-11.174c-21.06,3.111-47.045,7.816-57.354,13.248c-11.933,6.285,24.245,18.951,57.551,26.238 C94.606,348.221,94.284,347.42,93.986,346.611z"/> <path d="M178.853,397.246c17.39,0.375,36.777-5.605,52.962-16.277c3.826-2.521,7.386-5.254,10.667-8.15 c9.037-7.977,15.893-17.244,20.032-27.104c-0.635,0.529-1.282,1.041-1.945,1.531c-5.454,4.049-11.737,6.852-18.2,8.861 c-0.747,0.234-1.499,0.451-2.253,0.66c-2.513,0.693-5.061,1.258-7.622,1.748c-3.331,0.646-6.703,1.002-10.078,1.312 c-3.378,0.227-6.767,0.398-10.152,0.348c-3.387,0.002-6.769-0.189-10.146-0.438c-1.688-0.131-3.367-0.334-5.052-0.506 l-5.026-0.697l-9.874-1.643l-19.699-3.281c-3.279-0.553-6.564-1.188-9.827-1.557l-5.827-0.764l-3.972-0.521 c-3.263-0.41-6.535-0.938-9.779-1.113l-4.873-0.383c-0.795-0.051-1.66-0.158-2.398-0.162l-1.926-0.035l-3.001,0.822 c-1.176,0.328-2.415,0.533-3.62,0.801c-1.199,0.285-2.48,0.385-3.716,0.58c-0.616,0.105-1.27,0.119-1.908,0.166 c-0.643,0.035-1.279,0.094-1.928,0.105l-1.976-0.041c-0.165,0.002-0.334-0.02-0.503-0.029c-0.497-0.031-1.002-0.094-1.506-0.146 l-1.011-0.121c-0.333-0.061-0.669-0.141-1.004-0.213C116.898,377.52,147.285,396.574,178.853,397.246z"/> <path d="M235.62,327.49c-7.166,2.549-14.411,4.557-21.72,5.99c-6.968,1.365-13.994,2.205-21.061,2.551 c-2.369,0.115-4.742,0.191-7.12,0.191c-8.503,0-18.469-0.789-29.634-2.984c-0.32-0.064-0.64-0.125-0.961-0.191 c-3.997-0.811-8.144-1.799-12.435-3c-4.048-1.135-8.228-2.463-12.519-3.994c-0.672,0.068-1.345,0.127-2.015,0.201 c-3.879,0.43-7.736,0.949-11.541,1.609c-3.794,0.676-7.56,1.469-11.097,2.586c-1.763,0.555-3.471,1.197-4.992,1.953 c-0.775,0.365-1.451,0.783-2.081,1.199c-0.57,0.43-1.09,0.873-1.378,1.26c-0.28,0.395-0.368,0.65-0.398,0.889 c-0.031,0.115,0.013,0.275,0.013,0.441c0.081,0.201,0.093,0.4,0.239,0.662c0.4,0.957,1.407,2.148,2.575,3.238 c0.075,0.07,0.145,0.145,0.222,0.213l0.955,1.42c-0.129-0.316-0.008-0.043,0.033-0.004c0.074,0.096,0.153,0.211,0.251,0.32 c0.199,0.232,0.47,0.449,0.741,0.678c0.093,0.053,0.18,0.115,0.268,0.174c0.226,0.15,0.449,0.305,0.735,0.418l0.551,0.273 l0.623,0.213c0.397,0.168,0.854,0.264,1.312,0.365l0.684,0.156l0.729,0.086c0.264,0.027,0.523,0.064,0.786,0.096 c0.226,0.027,0.453,0.049,0.693,0.043l1.529,0.047c0.518-0.008,1.048-0.057,1.572-0.08c0.527-0.037,1.047-0.033,1.585-0.127 c1.071-0.172,2.134-0.229,3.212-0.482c1.076-0.238,2.154-0.396,3.23-0.693l3.229-0.861l0.561-0.15l0.285,0.008l2.759,0.076 c0.926,0.025,1.714,0.148,2.577,0.219l5.072,0.496c3.403,0.256,6.7,0.854,10.031,1.338l8.757,1.326l1.216,0.186 c3.347,0.449,6.586,1.143,9.86,1.76l19.589,3.889l9.768,1.953l4.84,0.834l4.863,0.674c3.248,0.385,6.507,0.719,9.774,0.863 c3.268,0.197,6.539,0.178,9.809,0.107c5.868-0.238,11.736-0.859,17.477-2.119c0.646-0.141,1.291-0.285,1.934-0.443 c6.325-1.602,12.532-3.91,18.066-7.42c1.204-0.768,2.36-1.609,3.478-2.5c-0.106-0.139-0.212-0.279-0.32-0.414 c-0.262-0.354-0.52-0.625-0.775-1.033c-0.22-0.34-0.438-0.676-0.652-1.01c-0.664-0.961-1.223-1.98-1.764-2.973 c-0.184-0.336-0.373-0.682-0.553-1.004c-0.55-1.076-1.045-2.098-1.519-3.08c-0.641-1.326-1.236-2.566-1.817-3.68 c-0.018-0.033-0.036-0.07-0.054-0.104c-0.481-1.002-1.02-1.867-1.492-2.678c-0.448-0.828-0.961-1.504-1.405-2.125 c-0.843-1.281-1.683-2.105-2.207-2.699c-0.532-0.59-0.807-0.895-0.807-0.895s0.005-0.027,0.015-0.07 C245.113,323.863,240.384,325.797,235.62,327.49z"/> <path d="M169.352,281.383c-0.594-0.219-1.191-0.424-1.786-0.641c-1.168-0.426-2.339-0.838-3.509-1.256 c-1.706-0.611-3.407-1.236-5.117-1.832l-10.433-3.662l-3.087-1.062l-6.683-2.303l-0.679-0.234l-5.624-1.859l-4.866-1.607 c-3.489-1.18-7.019-2.225-10.526-3.344c-3.507-1.115-7.01-2.242-10.54-3.271c-3.525-1.047-7.039-2.136-10.571-3.148l-10.622-2.94 c-3.532-1.019-7.112-1.811-10.665-2.727l-5.335-1.342l-5.358-1.204l-5.36-1.19c-1.786-0.401-3.571-0.81-5.371-1.104l-10.772-1.95 l-0.262-0.048l-0.167-0.05c-5.415-1.589-10.539-3.93-15.294-6.381c-2.107-1.07-4.151-2.121-6.181-3.098 c-0.766,0.006-1.499,0.012-2.178,0.02c7.349,8.779,23.347,26.661,45.358,44.356c11.765,9.461,26.316,19.674,42.911,28.359 c7.857,4.113,16.171,7.881,24.871,11.062c2.725,0.996,5.487,1.936,8.286,2.809c3.348,1.047,6.744,2.006,10.189,2.852 c0.877,0.215,1.759,0.416,2.643,0.619c10.648,2.432,21.718,3.846,33.099,3.846c16.517,0,32.84-2.951,48.76-8.773 c1.189-0.436,2.375-0.887,3.561-1.355l-1.992-0.48l-1.945-0.531l-1.029-0.281c-1.99-0.521-3.951-1.15-5.911-1.785 c-1.975-0.594-3.881-1.387-5.829-2.072c-1.932-0.729-3.819-1.578-5.734-2.363c-1.053-0.5-2.106-1.002-3.158-1.508 c-0.816-0.395-1.632-0.791-2.442-1.201c-0.197-0.113-0.398-0.223-0.596-0.334c-0.995-0.557-1.999-1.098-2.991-1.662 c-0.621-0.352-1.237-0.711-1.838-1.1c-3.522-2.199-6.956-4.762-10.056-7.475c-4.183-3.689-8.082-7.641-11.761-11.799 c-3.917-1.467-7.838-2.92-11.768-4.348C170.442,281.785,169.899,281.58,169.352,281.383z"/> <path d="M402.786,65.393c-11.287,14.099-16.725,20.277-21.419,20.277c-0.892,0-1.76-0.226-2.509-0.655 c-3.784-2.162-5.556-6.001-6.729-8.541c-0.255-0.551-0.586-1.268-0.812-1.66c-0.249-0.138-0.462-0.286-0.64-0.424 c-2.656,0.755-12.449,6.364-48.078,37.156c-0.936,0.809-1.897,1.641-2.869,2.486c-0.16,0.139-0.311,0.269-0.471,0.407 c-0.807,0.702-1.6,1.401-2.377,2.101c-4.261,3.826-8.092,7.619-11.551,11.361c-11.44,12.373-18.725,24.171-23.303,34.667 c1.621,1.432,2.8,3.171,3.868,4.751c0.804,1.189,1.562,2.312,2.362,3.079c0.848,0.812,2.015,1.549,3.25,2.328 c2.14,1.35,4.564,2.878,6.145,5.379c1.51,2.388,1.899,5.042,2.165,7.459c0.026,0.235,0.052,0.472,0.076,0.704 c0.146,1.379,0.283,2.682,0.601,3.744c0.026,0.088,0.065,0.183,0.096,0.272c0.321,0.954,0.846,1.995,1.409,3.096 c0.087,0.171,0.176,0.347,0.264,0.52c0.467,0.917,0.934,1.883,1.329,2.905c1.112,0.637,2.212,1.297,3.297,1.984 c4.476,2.863,8.745,6.136,12.487,10.016c0.836,0.87,1.643,1.771,2.426,2.694c2.711,3.194,5.09,6.695,6.958,10.476 c0.551,1.243,1.212,2.436,1.661,3.72l1.334,3.851c0.642,2.633,1.352,5.262,1.565,7.958c0.446,2.675,0.308,5.371,0.383,8.051 l-0.343,3.989c-0.064,0.664-0.104,1.331-0.19,1.99l-0.359,1.957l-0.109,0.588c4.72-6.018,9.52-11.968,14.411-17.837 c5.877-7.031,11.799-14.022,17.872-20.868c3.059-3.418,6.286-6.752,9.424-10.134l2.37-2.528l1.188-1.262l1.249-1.196l5-4.786 l5.006-4.784c0.144-0.141,0.295-0.272,0.441-0.411c1.714-5.757,3.276-11.394,4.688-16.873 c3.533-13.716,6.168-26.486,8.128-37.903c6.171-35.934,6.824-64.4,6.68-77.951c-0.176,0.209-0.358,0.433-0.536,0.646 C406.75,60.447,404.755,62.932,402.786,65.393z"/> <path d="M489.016,130.577l-5.987,3.254c-1.987,1.1-3.946,2.25-5.921,3.371l-5.912,3.384l-5.838,3.509l-5.849,3.489l-5.757,3.635 c-3.834,2.43-7.688,4.827-11.412,7.418l-5.633,3.814l-2.817,1.906l-2.753,1.995l-11.024,7.959l-10.737,8.33 c-1.819,1.354-3.501,2.869-5.24,4.318l-5.184,4.385c-0.966,0.788-1.911,1.596-2.847,2.415c-1.731,1.513-3.425,3.068-5.112,4.628 c-0.72,0.666-1.439,1.332-2.161,1.994l-2.968,2.73l-0.327,0.3l-1.699,1.563l-1.249,1.148l-1.184,1.212l-2.364,2.426 c-3.141,3.257-6.338,6.427-9.438,9.757c-6.145,6.744-12.335,13.438-18.386,20.255c-6.061,6.806-12.022,13.694-17.816,20.713 c-1.172,1.424-2.332,2.858-3.489,4.293c-0.467,1.295-0.972,2.576-1.448,3.863c-1.93,4.861-4.258,9.521-6.83,14.016l-0.939,1.699 c-0.327,0.559-0.688,1.096-1.029,1.643l-0.027,0.045l-1.054,1.656c0.521-0.143,1.089-0.303,1.697-0.475 c1.385-0.393,2.986-0.854,4.797-1.387c2.001-0.6,4.258-1.285,6.729-2.064c1.757-0.553,3.619-1.152,5.588-1.805 c4.744-1.543,10.058-3.412,15.83-5.52c0.254-0.092,0.521-0.195,0.776-0.291c1.691-0.625,3.424-1.281,5.186-1.955 c0.996-0.379,1.984-0.758,3.003-1.146c0.67-0.273,1.367-0.545,2.05-0.816c2.442-0.971,4.933-1.945,7.465-3.025 c3.25-1.357,6.59-2.752,9.962-4.271c3.396-1.469,6.817-3.07,10.297-4.702c3.499-1.595,6.963-3.399,10.523-5.127 c3.512-1.816,7.073-3.65,10.619-5.576c3.511-1.986,7.12-3.875,10.604-6.004c1.757-1.041,3.517-2.084,5.278-3.129 c1.753-1.059,3.466-2.184,5.203-3.272c3.96-2.475,7.829-5.083,11.63-7.752c2.754-1.934,5.475-3.898,8.15-5.883 c0.116-0.087,0.237-0.173,0.354-0.26c3.233-2.416,6.312-4.976,9.429-7.419c2.984-2.594,5.977-5.115,8.826-7.695 c1.394-1.325,2.775-2.637,4.146-3.938c1.357-1.312,2.762-2.556,4.008-3.925c1.276-1.34,2.539-2.666,3.787-3.976 c1.249-1.309,2.5-2.588,3.615-3.956c1.146-1.341,2.274-2.664,3.388-3.967c1.109-1.306,2.237-2.566,3.204-3.916 c1.981-2.662,3.986-5.173,5.751-7.697c1.698-2.571,3.327-5.036,4.876-7.379c1.469-2.393,2.721-4.749,3.975-6.919 c0.604-1.097,1.243-2.132,1.766-3.181c0.5-1.058,0.983-2.079,1.447-3.059c0.542-1.146,1.051-2.221,1.539-3.255 c0.317-1.201,0.625-2.405,0.926-3.611c1.111-4.343,2.078-8.721,2.99-13.106c0.877-4.392,1.702-8.794,2.368-13.215 c0.438-2.892,0.844-5.819,1.175-8.718c-6.871,3.121-13.696,6.505-20.455,9.922C497.051,126.338,492.989,128.369,489.016,130.577z "/> <path d="M424.555,282.375l-0.327,0.166c-0.104,0.059-0.208,0.117-0.312,0.176L424.555,282.375z"/> <path d="M421.297,284.061c0,0.018,0.001,0.035,0.001,0.053l0.272-0.146l0.707-0.377l-0.834,0.418L421.297,284.061z"/> <path d="M421.299,284.205c0.596-0.322,1.187-0.646,1.774-0.975l-1.482,0.779l-0.293,0.152 C421.299,284.176,421.299,284.189,421.299,284.205z"/> <path d="M426.913,281.021c1.017-0.604,2.025-1.211,3.021-1.832c-0.817,0.494-1.638,0.988-2.451,1.486L426.913,281.021z"/> <path d="M359.926,280.023c-1.538,0.635-3.052,1.494-4.537,2.084c-0.246,0.098-0.479,0.188-0.723,0.283 c-1.844,0.73-3.631,1.426-5.377,2.098c-3.461,1.334-6.745,2.564-9.778,3.643c-1.772,0.643-3.465,1.24-5.07,1.795 c-1.341,0.465-2.612,0.898-3.827,1.307c-1.232,0.414-2.406,0.803-3.498,1.164c-0.231,0.074-0.451,0.145-0.677,0.219 c1.345,0.102,2.697,0.203,4.06,0.309c1.204,0.092,2.412,0.184,3.631,0.277c3.154,0.234,6.354,0.439,9.583,0.596 c1.369,0.066,2.745,0.123,4.126,0.168c0.001-0.004,0.002-0.004,0.003-0.006c1.336-2.18,2.646-4.355,3.929-6.539 c-1.28,2.182-2.591,4.361-3.925,6.539c0.016,0,0.03,0,0.046,0c-0.018,0.029-0.032,0.055-0.048,0.084c0.001,0,0.002,0,0.003,0 c0.017-0.029,0.032-0.055,0.048-0.084c1.121,0.037,2.243,0.084,3.37,0.084c0.056,0,0.111,0,0.167,0 c0.054,0,0.109-0.02,0.164-0.031c-0.055,0.014-0.11,0.029-0.164,0.045c0.177,0,0.355,0.002,0.532,0.004 c5.568,0.039,11.239-0.082,16.664-1.145c1.386-0.324,2.83-0.545,4.137-1.043l2.011-0.65l1.87-0.875l0.939-0.432 c0.437-0.205,0.718-0.369,1.084-0.557l2.083-1.092c1.521-0.717,3.06-1.463,4.643-2.062c1.574-0.635,3.246-1.172,5.026-1.586 c1.816-0.359,3.737-0.676,6.042-0.303c1.133,0.17,2.401,0.615,3.568,1.389c0.013,0.01,0.024,0.021,0.038,0.031l0.8-0.766 c2.312-2.242,4.661-4.584,7.452-6.785c0.709-0.551,1.449-1.094,2.287-1.617c0.856-0.518,1.744-1.045,3.092-1.445 c0.679-0.184,1.513-0.361,2.628-0.225c1.118,0.111,2.499,0.834,3.245,1.762c0.77,0.916,1.063,1.775,1.256,2.469 c0.088,0.344,0.164,0.695,0.202,0.994l0.032,0.232c-0.002-0.059,0.039,0.35,0.037,0.355l0.021,0.305l0.163,2.441 c0.012,0.172,0.009,0.365,0.01,0.555l0.128-0.045l2.805-1.428c0.21-0.117,0.421-0.234,0.63-0.352l2.578-1.59 c1.915-1.189,3.851-2.35,5.748-3.564l5.532-3.895c1.877-1.254,3.623-2.684,5.385-4.09l2.646-2.105 c0.886-0.699,1.771-1.395,2.595-2.166l5.039-4.51c1.681-1.503,3.2-3.175,4.807-4.754l2.379-2.4 c0.779-0.812,1.509-1.673,2.267-2.506c1.49-1.689,3.022-3.34,4.478-5.059l4.247-5.252l1.06-1.313l0.999-1.362l1.999-2.722 l1.999-2.72c0.657-0.912,1.261-1.865,1.893-2.795c1.23-1.885,2.511-3.735,3.689-5.651l3.481-5.779 c1.153-1.929,2.19-3.929,3.29-5.888c1.112-1.953,2.122-3.961,3.127-5.972c1.007-2.009,2.052-3.997,2.965-6.052 c0.933-2.044,1.913-4.065,2.805-6.126l2.633-6.2c1.658-4.174,3.295-8.354,4.764-12.596c0.78-2.104,1.451-4.247,2.157-6.376 c0.721-2.124,1.368-4.273,2.009-6.422c0.665-2.142,1.273-4.301,1.859-6.465c0.044-0.154,0.084-0.31,0.127-0.464 c-0.153,0.347-0.295,0.669-0.452,1.027c-0.438,0.997-0.896,2.034-1.37,3.11c-0.496,1.066-1.106,2.122-1.684,3.239 c-1.199,2.211-2.395,4.615-3.806,7.062c-1.493,2.4-3.063,4.923-4.703,7.555c-1.706,2.589-3.653,5.17-5.579,7.908 c-0.939,1.388-2.039,2.687-3.121,4.033c-1.087,1.345-2.188,2.708-3.307,4.093c-1.088,1.41-2.312,2.733-3.536,4.088 c-1.224,1.355-2.462,2.728-3.713,4.115c-1.222,1.418-2.602,2.709-3.937,4.071c-1.347,1.351-2.706,2.715-4.077,4.089 c-2.806,2.684-5.754,5.31-8.7,8.012c-3.076,2.549-6.119,5.224-9.317,7.751c-4.68,3.681-9.489,7.319-14.429,10.8 c-1.827,1.287-3.669,2.556-5.532,3.792c-1.725,1.148-3.427,2.333-5.169,3.451c-1.147,0.723-2.291,1.444-3.437,2.167 c-0.604,0.38-1.207,0.761-1.81,1.14c-3.465,2.249-7.054,4.254-10.551,6.359c-3.531,2.043-7.077,3.992-10.578,5.927 c-3.547,1.842-7.004,3.764-10.494,5.469c-3.471,1.746-6.889,3.459-10.279,5.035c-3.367,1.629-6.705,3.131-9.954,4.592 c-3.237,1.486-6.443,2.803-9.516,4.146c-1.506,0.623-2.983,1.238-4.439,1.838c-1.084,1.965-2.192,3.928-3.319,5.895 c-1.479,2.574-2.984,5.15-4.537,7.725c-0.037,0.01-0.074,0.02-0.111,0.029c0.037-0.012,0.074-0.025,0.111-0.037 c1.553-2.572,3.058-5.143,4.535-7.717c0.001-0.002,0.001-0.004,0.002-0.004c-0.495,0.15-1,0.309-1.484,0.455 c0.484-0.146,0.989-0.545,1.484-0.695c-0.001,0-0.001-0.238-0.002-0.238c0.001,0,0.001,0,0.002,0 C357.734,284.482,358.842,281.988,359.926,280.023z"/> <path d="M159.102,184.912c-0.032,2.668-0.052,4.192-0.052,4.192s-0.093-1.521-0.257-4.185c-0.081-1.331-0.181-2.945-0.294-4.798 c-0.08-1.853-0.333-3.937-0.539-6.208c-0.245-2.27-0.4-4.736-0.765-7.326c-0.342-2.589-0.702-5.319-1.073-8.143 c-0.46-2.808-0.937-5.71-1.421-8.658c-0.579-2.927-1.167-5.901-1.755-8.874c-0.693-2.95-1.301-5.914-2.052-8.797 c-0.75-2.882-1.449-5.724-2.268-8.435c-0.758-2.728-1.578-5.335-2.374-7.798c-0.777-2.47-1.615-4.767-2.355-6.895 c-0.349-0.933-0.68-1.824-1.003-2.683c-0.846,16.657-1.635,47.969,1.885,78.735c0.611,5.333,1.352,10.648,2.244,15.869 c0.145,0.85,0.294,1.696,0.447,2.54c0.243,1.336,0.495,2.667,0.759,3.987c0.258,1.296,0.524,2.584,0.804,3.862 c2.155,9.849,4.946,19.125,8.53,27.254c0.298,0.197,0.6,0.386,0.896,0.585c0.333,0.225,0.657,0.46,0.989,0.688 c-0.058-0.627-0.079-1.26-0.11-1.892c-0.075-1.503-0.104-3.01-0.019-4.524c0.105-1.827,0.355-3.646,0.691-5.452 c0.471-2.533,1.14-5.033,2.057-7.449c0.638-1.725,1.428-3.377,2.315-4.972c0.55-0.987,1.137-1.952,1.754-2.895 c0.639-0.974,1.307-1.925,1.997-2.855c0.169-0.229,0.336-0.459,0.508-0.685l2.103-2.511c0.693-0.846,1.511-1.556,2.263-2.339 c1.493-1.589,3.174-2.928,4.82-4.32c1.639-1.402,3.446-2.538,5.173-3.805c1.252-0.806,2.522-1.574,3.794-2.343 c0.546-0.33,1.094-0.66,1.639-0.994l0.393-0.242l0.606-0.13c0.206-0.044,0.413-0.093,0.617-0.139 c0.34-0.074,0.68-0.153,1.021-0.229c0.891-0.198,1.78-0.4,2.673-0.611c0.533-0.125,1.065-0.257,1.598-0.387 c1.302-0.318,2.6-0.646,3.896-0.987c1.601-0.421,3.198-0.852,4.778-1.304c1.097-0.317,2.193-0.644,3.285-0.978 c0.624-0.191,1.241-0.394,1.86-0.59c-0.275-0.641-0.556-1.291-0.844-1.953c-0.943-2.168-1.957-4.446-3.033-6.804 c-0.494-1.081-0.998-2.176-1.518-3.29c-0.503-1.077-1.02-2.168-1.547-3.271c-6.519-13.632-14.887-29.101-24.563-42.488 c-0.803-1.112-1.614-2.211-2.435-3.292c-0.818-1.077-1.647-2.132-2.482-3.175c-7.718-9.625-16.147-17.642-25.045-22.307 c0.048,0.15,0.094,0.292,0.142,0.447c0.593,1.8,1.173,3.85,1.825,6.078c0.602,2.241,1.284,4.658,1.893,7.239 c0.627,2.577,1.267,5.295,1.833,8.127c0.628,2.817,1.126,5.758,1.671,8.733c0.544,2.977,0.941,6.026,1.42,9.055 c0.373,3.044,0.745,6.087,1.112,9.084c0.269,3.002,0.533,5.958,0.788,8.819c0.165,2.864,0.324,5.631,0.476,8.257 c0.173,2.62,0.148,5.11,0.226,7.399c0.04,2.292,0.138,4.387,0.082,6.248C159.138,181.955,159.117,183.577,159.102,184.912z"/> <path d="M66.556,219.354c-5.232,0.08-10.463,0.355-15.675,0.812c-4.345,0.381-8.677,0.901-12.988,1.54 c-0.862,0.128-1.724,0.252-2.584,0.391c-5.161,0.833-10.304,1.788-15.376,2.981c-1.005,0.239-2.014,0.491-3.023,0.745 c1.823,0.619,3.556,1.349,5.234,2.124c2.506,1.159,4.885,2.421,7.213,3.616c0.202,0.104,0.407,0.21,0.609,0.313 c2.373,1.241,4.724,2.389,7.09,3.412c2.25,0.972,4.515,1.826,6.823,2.528l10.696,2c1.844,0.315,3.656,0.74,5.471,1.158 l5.447,1.243l5.442,1.257l5.39,1.432c3.581,0.991,7.202,1.861,10.75,2.951l10.678,3.159c3.547,1.085,7.07,2.244,10.604,3.361 c3.54,1.108,7.055,2.281,10.555,3.498c2.489,0.873,4.984,1.725,7.472,2.599c1.007,0.354,2.018,0.7,3.019,1.071l3.072,1.115 l6.186,2.246l1.186,0.43l10.39,3.922c3.471,1.283,6.899,2.68,10.34,4.045c1.11,0.438,2.211,0.896,3.319,1.342 c1.23,0.494,2.46,0.99,3.686,1.49c1.094,0.445,2.193,0.877,3.285,1.328c0.102,0.041,0.204,0.084,0.305,0.127 c2.17,0.885,4.332,1.791,6.497,2.693c-0.076-0.096-0.156-0.186-0.231-0.281c-2.424-3.15-4.702-6.426-6.82-9.82 c-0.101-0.16-0.206-0.318-0.305-0.479c-0.711-1.139-1.382-2.307-2.037-3.484c-1.071-1.926-2.068-3.9-3-5.914 c-0.275-0.594-0.556-1.186-0.819-1.787c-0.427-0.968-0.833-1.948-1.217-2.939c-0.538-1.388-1.011-2.805-1.454-4.235 c-0.4-1.299-0.759-2.612-1.072-3.942c-0.081-0.346-0.178-0.686-0.252-1.032c-0.201-0.921-0.37-1.854-0.525-2.788 c-0.049-0.031-0.099-0.061-0.149-0.093c-0.973-0.621-1.951-1.234-2.939-1.828c-0.051-0.031-0.104-0.06-0.156-0.091 c-0.758-0.457-1.525-0.896-2.293-1.338c-1.676-0.963-3.371-1.893-5.082-2.786c-2.104-1.097-4.228-2.15-6.376-3.152 c-5.031-2.349-10.201-4.376-15.46-6.126c-4.675-1.557-9.419-2.896-14.209-4.025c-0.71-0.168-1.425-0.321-2.137-0.48 c-1.567-0.35-3.139-0.681-4.716-0.986c-1.566-0.303-3.135-0.591-4.709-0.851c-6.443-1.062-12.946-1.763-19.466-2.133 C77.021,219.411,71.788,219.267,66.556,219.354z"/> <path d="M322.87,270.418c0.446-1.123,0.875-2.252,1.275-3.389c0.351-1.076,0.723-2.146,1.074-3.223 c0.418-1.281,0.806-2.568,1.076-3.884l0.893-3.586l0.566-3.63l0.287-1.812c0.061-0.606,0.076-1.215,0.118-1.822l0.217-3.639 c-0.152-2.411-0.073-4.842-0.549-7.201c-0.248-2.396-0.959-4.689-1.572-6.99l-1.267-3.343c-0.419-1.114-1.044-2.142-1.55-3.218 c-1.757-3.3-3.923-6.383-6.412-9.211c-0.682-0.773-1.376-1.537-2.105-2.27c-3.208-3.22-6.895-5.981-10.782-8.431 c-0.234-0.148-0.463-0.307-0.698-0.453c-0.84-0.513-1.696-0.999-2.556-1.481c-1.161-0.65-2.337-1.278-3.532-1.872 c-0.206-0.103-0.411-0.206-0.617-0.306c-1.109-0.541-2.231-1.057-3.364-1.549c-1.025-0.446-2.058-0.878-3.1-1.286 c-0.123-0.046-0.249-0.088-0.372-0.135c-4.478-1.69-9.071-3.102-13.736-4.134c-0.485-0.107-0.972-0.19-1.458-0.288 c-1.194-0.241-2.39-0.458-3.588-0.646c-0.723-0.115-1.447-0.237-2.17-0.336c-0.502-0.048-0.985-0.102-1.471-0.154 c-0.667-0.072-1.338-0.14-2.07-0.182l-1.91-0.094l-1.878-0.071c-5.29-0.206-10.67-0.836-15.965-2.425 c-2.638-0.79-5.256-1.853-7.689-3.128c-1.212-0.626-2.384-1.31-3.409-1.871c-1.022-0.584-1.899-0.891-1.977-0.838 c-0.068,0.006-0.09-0.018-0.307,0.072c-0.203,0.097-0.563,0.294-0.862,0.535l-0.232,0.168l-0.357,0.309l-0.361,0.313 c-0.08,0.07,0.06-0.054,0.022-0.023l-0.057,0.045l-0.115,0.092l-0.229,0.183c-0.612,0.478-1.234,0.982-1.853,1.42 c-2.462,1.585-4.926,2.785-7.394,3.819c-0.705,0.297-1.413,0.562-2.119,0.838c-1.13,0.442-2.26,0.863-3.394,1.26 c-1.141,0.399-2.283,0.784-3.427,1.147c-0.711,0.226-1.422,0.458-2.136,0.674c-1.127,0.34-2.256,0.668-3.385,0.99 c-0.148,0.042-0.295,0.087-0.442,0.129c-1.057,0.295-2.113,0.552-3.168,0.832c-1.895,0.503-3.799,0.995-5.706,1.45 c-0.311,0.074-0.627,0.14-0.938,0.213c-0.922,0.216-1.849,0.425-2.778,0.631c-0.496,0.11-0.985,0.231-1.483,0.337 c-0.143,0.031-0.281,0.065-0.424,0.097c-0.487,0.295-0.975,0.588-1.463,0.88c-0.712,0.425-1.417,0.859-2.123,1.293 c-0.349,0.214-0.703,0.423-1.047,0.642l-2.387,1.677c-0.797,0.556-1.617,1.089-2.341,1.724c-1.492,1.224-3.036,2.399-4.36,3.778 c-0.445,0.451-0.911,0.883-1.362,1.329c-0.229,0.227-0.464,0.449-0.669,0.696l-1.866,2.155c-0.049,0.063-0.097,0.128-0.146,0.191 c-0.756,0.976-1.488,1.972-2.176,2.994c-1.375,2.037-2.58,4.174-3.459,6.454c-1.38,3.476-2.229,7.153-2.515,10.917 c-0.279,3.648,0.084,7.352,0.734,11.02c0.015,0.09,0.027,0.181,0.043,0.271c0.006,0.032,0.009,0.064,0.015,0.097 c0.091,0.49,0.209,0.978,0.316,1.467c0.13,0.6,0.26,1.2,0.411,1.798c0.048,0.189,0.105,0.377,0.155,0.567 c0.356,1.347,0.76,2.686,1.217,4.013c0.386,1.121,0.794,2.236,1.246,3.339c0.314,0.771,0.646,1.54,0.981,2.307 c1.162,2.648,2.458,5.251,3.912,7.779c0.107,0.188,0.207,0.379,0.317,0.566c1.107,1.908,2.279,3.785,3.5,5.635 c0.979,1.482,1.989,2.949,3.035,4.393c1.801,2.461,3.711,4.855,5.675,7.209c0.797,0.955,1.593,1.908,2.417,2.842 c0.809,0.918,1.638,1.818,2.472,2.713c1.707,1.83,3.445,3.625,5.251,5.342c2.944,2.781,5.993,5.221,9.302,7.498 c1.261,0.904,2.602,1.697,3.929,2.514c0.38,0.234,0.76,0.471,1.136,0.711c0.552,0.314,1.112,0.619,1.668,0.926 c0.936,0.514,1.875,1.023,2.816,1.529c0.27,0.145,0.54,0.291,0.811,0.436c1.825,0.854,3.623,1.771,5.477,2.576 c1.871,0.76,3.702,1.631,5.611,2.307c1.897,0.709,3.781,1.461,5.712,2.084l0.091,0.031l2.793,0.943l2.915,0.889 c0.367,0.119,0.741,0.213,1.11,0.322c1.58,0.465,3.176,0.877,4.763,1.324c0.264,0.062,0.527,0.129,0.792,0.193 c1.335,0.324,2.67,0.648,4.011,0.955c0.221-0.756,0.558-1.799,1.075-3.123c0.035-0.086,0.075-0.182,0.111-0.27 c0.718-1.764,1.725-3.998,3.265-6.484c0.609-0.98,1.298-2,2.086-3.043c0.365-0.482,0.758-0.971,1.167-1.463 c0.074-0.088,0.136-0.176,0.211-0.264c0.174-0.205,0.372-0.414,0.553-0.621c0.255-0.289,0.506-0.578,0.774-0.869 c1.621-1.744,3.513-3.496,5.748-5.119c1.925-1.4,4.119-2.672,6.513-3.791c1.175-0.549,2.382-1.072,3.657-1.535 c3.872-1.416,8.205-2.312,12.802-2.691c0.545-0.051,1.098-0.086,1.652-0.115c1.777-0.096,3.597-0.1,5.415-0.059 c2.355,0.072,4.744,0.09,7.222,0.213c1.485,0.057,2.994,0.123,4.513,0.199c0.59,0.029,1.186,0.061,1.78,0.094 c0.613,0.031,1.225,0.064,1.843,0.1c0.422,0.023,0.85,0.051,1.274,0.076l0.681-1.041c0.268-0.41,0.514-0.83,0.76-1.252 c0.392-0.664,0.775-1.336,1.171-1.998l0.942-1.617l0.959-1.645c0.312-0.547,0.645-1.082,0.939-1.635l0.191-0.381l0.655-1.303 c0.284-0.543,0.551-1.094,0.827-1.643C320.367,276.248,321.699,273.359,322.87,270.418z"/> <path d="M366.173,358.693c-5.885,2.408-11.9,4.203-17.905,5.289c-0.368,0.078-0.737,0.133-1.105,0.197 c14.206,5.557,28.419,8.377,42.399,8.377c53.364,0,88.476-40.998,93.663-47.447l-1.359-0.135 c-0.032,0.021-0.062,0.043-0.095,0.064c-1.2,0.758-2.404,1.391-3.609,1.967c-4.825,2.279-9.685,3.859-14.586,5.258 c-9.806,2.721-19.684,4.695-29.593,6.412c-4.955,0.852-9.93,1.551-14.904,2.223c-4.976,0.662-9.957,1.26-14.944,1.797 c-4.597,0.518-9.202,0.928-13.812,1.281C382.961,350.248,374.731,355.162,366.173,358.693z"/> <path d="M412.033,316.877c-0.104,0.189-0.206,0.379-0.312,0.568c-0.104,0.188-0.205,0.381-0.312,0.57 c-0.416,0.736-0.841,1.469-1.273,2.195c-1.746,2.891-3.575,5.721-5.585,8.414c-0.484,0.686-1.006,1.346-1.52,2.01l-0.771,0.994 l-0.192,0.248l-0.253,0.307l-0.393,0.463l-1.565,1.852c-0.512,0.615-1.037,1.232-1.645,1.859 c-0.006,0.006-0.013,0.012-0.019,0.02l5.166-0.566c4.929-0.576,9.848-1.211,14.756-1.908c4.91-0.686,9.8-1.484,14.686-2.275 c9.762-1.604,19.494-3.467,28.944-6c2.268-0.621,4.537-1.264,6.759-1.971c0.466-0.148,0.917-0.311,1.378-0.465 c0.454-0.152,0.904-0.307,1.353-0.465c1.424-0.51,2.826-1.041,4.171-1.643c1.059-0.469,2.079-0.977,3.002-1.527 c0.922-0.543,1.774-1.148,2.324-1.711c0.302-0.252,0.47-0.639,0.454-0.461c0.017-0.01,0.048-0.094,0.081-0.188 c-0.013-0.018-0.019-0.029-0.034-0.047c-0.098-0.1-0.214-0.217-0.348-0.34c-0.174-0.121-0.303-0.254-0.505-0.379 c-0.753-0.52-1.732-1.01-2.768-1.449c-1.035-0.443-2.125-0.854-3.253-1.219c-2.247-0.742-4.598-1.359-6.973-1.914 c-4.756-1.107-9.625-1.965-14.512-2.74c-4.888-0.799-9.807-1.492-14.738-2.113c-4.935-0.604-9.877-1.209-14.831-1.756 l-5.707-0.596C416.056,308.887,414.17,312.967,412.033,316.877z"/> <path d="M321.632,297.211c-1.462-0.162-2.911-0.322-4.344-0.48c-0.382-0.041-0.756-0.08-1.136-0.121 c-1.133-0.123-2.261-0.244-3.376-0.361c-0.62-0.064-1.233-0.127-1.848-0.191c-0.636-0.064-1.271-0.129-1.9-0.191 c-0.33-0.033-0.655-0.064-0.983-0.096c-0.563-0.055-1.128-0.111-1.686-0.164c-0.545-0.051-1.084-0.1-1.623-0.148 c-0.857-0.078-1.716-0.156-2.56-0.227c-2.422-0.229-4.843-0.354-7.182-0.529c-0.011,0-0.021,0-0.031,0 c-2.298-0.154-4.496-0.219-6.663-0.16c-4.34,0.113-8.444,0.721-12.144,1.846c-1.434,0.428-2.786,0.939-4.096,1.49 c-2.076,0.871-4.014,1.865-5.768,2.951c-2.362,1.482-4.377,3.139-6.118,4.811c-0.269,0.258-0.537,0.516-0.792,0.775 c-0.087,0.088-0.185,0.176-0.271,0.264c-0.172,0.18-0.324,0.357-0.489,0.535c-0.373,0.402-0.738,0.803-1.082,1.199 c-0.839,0.973-1.592,1.928-2.26,2.85c-1.461,2.012-2.535,3.861-3.334,5.412c-0.128,0.248-0.259,0.502-0.374,0.734 c-0.614,1.26-1.033,2.262-1.315,2.994c-0.065,0.172-0.124,0.326-0.174,0.467c-0.062,0.172-0.115,0.32-0.155,0.441 c-0.055,0.162-0.098,0.297-0.119,0.365c-0.014,0.049-0.021,0.074-0.021,0.074s0.299,0.279,0.877,0.824 c0.571,0.551,1.489,1.312,2.443,2.529c0.501,0.59,1.079,1.238,1.601,2.033c0.545,0.779,1.167,1.619,1.733,2.584 c0.122,0.189,0.245,0.396,0.367,0.594c0.73,1.176,1.471,2.467,2.27,3.854c0.401,0.699,0.814,1.41,1.254,2.146 c0.656,1.002,1.29,2.055,2.078,3.123c0.138,0.186,0.269,0.371,0.417,0.557c0.238,0.316,0.478,0.639,0.72,0.963 c0.137,0.195,0.34,0.414,0.539,0.631c0.076,0.084,0.154,0.168,0.225,0.248c0.107,0.115,0.213,0.238,0.318,0.357 c0.131,0.148,0.264,0.293,0.396,0.443c0.118,0.133,0.247,0.26,0.369,0.393c0.192,0.209,0.38,0.422,0.592,0.619 c0.277,0.281,0.587,0.551,0.879,0.828c0.899,0.85,1.853,1.686,2.888,2.486c1.487,1.152,3.102,2.248,4.847,3.266 c1.683,0.973,3.474,1.875,5.324,2.691c0.243,0.107,0.503,0.207,0.757,0.311c0.727,0.297,1.477,0.586,2.221,0.889 c1.005,0.326,2.025,0.656,3.058,0.99c1.044,0.338,2.101,0.682,3.17,1.029c1.083,0.307,2.198,0.559,3.314,0.846 c1.118,0.279,2.249,0.562,3.393,0.85c1.162,0.213,2.336,0.428,3.522,0.646c1.188,0.209,2.38,0.455,3.597,0.639 c1.223,0.146,2.458,0.299,3.704,0.449c2.483,0.363,5.043,0.49,7.639,0.666c0.648,0.043,1.299,0.086,1.953,0.131 c0.656,0.016,1.314,0.031,1.976,0.047c1.322,0.029,2.655,0.059,3.997,0.088c2.684,0.016,5.358-0.096,8.117-0.184 c1.403-0.102,2.817-0.203,4.24-0.307c0.07-0.006,0.141-0.012,0.211-0.016c0.397-0.029,0.795-0.059,1.193-0.088 c0.224-0.018,0.447-0.033,0.671-0.049c0.154-0.02,0.311-0.039,0.466-0.057c0.537-0.066,1.074-0.131,1.615-0.197 c1.393-0.156,2.788-0.334,4.18-0.602c1.396-0.234,2.801-0.465,4.19-0.807c5.582-1.232,11.184-2.943,16.611-5.312 c5.021-2.178,9.887-4.898,14.492-8.098c0.377-0.262,0.764-0.504,1.137-0.771c1.254-0.859,2.447-1.807,3.634-2.766 c-12.026,0.951-23.835,1.529-34.621,1.654c0.105-0.096,0.211-0.195,0.317-0.303c10.7-0.135,22.395-0.762,34.304-1.93h0.001 c1.217,0,2.347-1.672,3.495-2.688c0.186-0.164,0.368-0.271,0.55-0.398c0.075-0.006,0.152-0.014,0.228-0.021 c2.018-1.83,3.947-3.779,5.737-5.75c0.518-0.531,1.034-1.143,1.552-1.773l1.554-1.861l0.389-0.467l0.133-0.162l0.178-0.232 l0.711-0.93c0.475-0.621,0.957-1.236,1.403-1.881c1.713-2.322,3.273-4.768,4.768-7.248c0.114-0.191,0.237-0.375,0.352-0.566 c0.013-0.023,0.028-0.045,0.041-0.068c0.099-0.164,0.19-0.332,0.287-0.498c1.494-2.551,2.824-5.189,4.073-7.859 c0.652-1.445,1.259-2.908,1.824-4.385c0.111-0.289,0.201-0.584,0.309-0.877c0.109-0.295,0.207-0.592,0.312-0.889 c0.307-0.861,0.631-1.721,0.908-2.588c0.893-2.965,1.655-5.963,2.062-8.977c0.133-0.752,0.155-1.504,0.241-2.256l0.041-0.422 c-1.644,0.801-3.265,1.586-4.865,2.355c-19.36,9.322-35.665,16.488-49.282,21.771c11.928-4.639,25.866-10.732,42.183-18.453 c0.293-0.139,0.584-0.275,0.877-0.414c1.803-0.848,3.598-1.711,5.397-2.566c0.843-0.402,1.687-0.801,2.527-1.203 c0.338-0.162,0.676-0.322,1.013-0.482c0.716-0.344,1.436-0.68,2.15-1.023l0.065-0.691l0.024-1.068c0-0.73,0.069-1.369,0.025-2.18 l-0.08-1.312c-0.506,0.32-1.034,0.695-1.565,1.102c-2.324,1.805-4.598,4.012-6.923,6.244l-1.82,1.719 c-0.326,0.297-0.656,0.594-1.07,0.93c-0.213,0.17-0.428,0.344-0.804,0.588c-0.1,0.062-0.178,0.113-0.349,0.205 c-0.142,0.072-0.275,0.15-0.606,0.271c-0.24,0.059-0.661,0.301-1.755,0.201c-3.074-1.332-1.521-0.549-2.741-1.953 c-0.229-0.432-0.226-0.402-0.402-0.541c-0.179-0.09-0.426-0.246-0.875-0.314c-0.856-0.18-2.154-0.068-3.442,0.176 c-1.318,0.283-2.687,0.678-4.052,1.203c-1.384,0.49-2.69,1.104-4.024,1.689l-2.104,1.051c-0.334,0.162-0.736,0.379-1.013,0.494 l-1.192,0.533l-2.385,1.045l-2.428,0.744c-1.612,0.561-3.234,0.787-4.844,1.123c-6.445,1.105-12.682,1.105-18.687,0.83 c-0.892-0.045-1.77-0.102-2.652-0.156c-1.358-0.082-2.707-0.174-4.045-0.277c-1.361-0.104-2.713-0.217-4.054-0.338 c-2.252-0.203-4.482-0.42-6.675-0.654c-2.6-0.27-5.16-0.547-7.685-0.826C324.515,297.529,323.067,297.369,321.632,297.211z M350.785,340.662c-0.191,0-0.384,0.213-0.576,0.381c-0.666,0.367-1.334,1.006-2.001,1.617c-0.095,0.002-0.19,0.094-0.283,0.094 c0.939-0.812,1.881-2.092,2.818-2.092C350.757,340.662,350.77,340.662,350.785,340.662z M347.924,342.902 c0.013-0.01,0.026-0.023,0.039-0.033c0.031,0.006,0.062,0.018,0.092,0.031C348.012,342.902,347.967,342.902,347.924,342.902z M379.65,314.91l-1.339,0.041l-31.061,25.711c-0.004,0-0.008,0-0.012,0l31.072-25.727l1.373,0.039 C379.671,314.986,379.661,314.9,379.65,314.91z M357.535,312.938c0.77-0.293,1.549-0.594,2.337-0.898 C359.086,312.342,358.303,312.645,357.535,312.938z"/> </g> </g> </g> </g>
</svg>